<mxfile host="app.diagrams.net" modified="2023-03-12T12:49:52.275Z" agent="5.0 (Windows NT 10.0; Win64; x64) AppleWebKit/537.36 (KHTML, like Gecko) Chrome/109.0.0.0 Safari/537.36" etag="mn93iRyMDBv5QuznZXpf" version="21.0.6" type="github">
  <diagram name="第 1 页" id="ggSKdPNxCzflKMj0kCY3">
    <mxGraphModel dx="1034" dy="478" grid="1" gridSize="10" guides="1" tooltips="1" connect="1" arrows="1" fold="1" page="1" pageScale="1" pageWidth="827" pageHeight="1169" math="0" shadow="0">
      <root>
        <mxCell id="0" />
        <mxCell id="1" parent="0" />
        <mxCell id="hXpxBxxBCcp-H2kzStaJ-1" value="&lt;font style=&quot;font-size: 18px;&quot;&gt;正向索引&lt;br&gt;&lt;br&gt;id&amp;nbsp; &amp;nbsp; &amp;nbsp; &amp;nbsp; &amp;nbsp; &amp;nbsp; &amp;nbsp; &amp;nbsp; &amp;nbsp; &amp;nbsp; &amp;nbsp; &amp;nbsp; &amp;nbsp;content&lt;br&gt;——————————————&lt;br&gt;1001&amp;nbsp; &amp;nbsp; &amp;nbsp;MyNameiszhangsan&lt;br&gt;1002&amp;nbsp; &amp;nbsp; This is my new friend&lt;br&gt;&lt;/font&gt;" style="text;html=1;strokeColor=#000000;fillColor=none;align=center;verticalAlign=middle;whiteSpace=wrap;rounded=0;" vertex="1" parent="1">
          <mxGeometry x="40" y="110" width="320" height="160" as="geometry" />
        </mxCell>
        <mxCell id="hXpxBxxBCcp-H2kzStaJ-2" value="&lt;font style=&quot;font-size: 18px;&quot;&gt;倒排索引&lt;br&gt;&lt;br&gt;keyword&amp;nbsp; &amp;nbsp; &amp;nbsp; &amp;nbsp; &amp;nbsp; &amp;nbsp; &amp;nbsp; &amp;nbsp; &amp;nbsp; &amp;nbsp; &amp;nbsp; &amp;nbsp; &amp;nbsp;id&lt;br&gt;——————————————&lt;br&gt;is&amp;nbsp; &amp;nbsp; &amp;nbsp; &amp;nbsp; &amp;nbsp; &amp;nbsp; &amp;nbsp; &amp;nbsp; &amp;nbsp; &amp;nbsp;1001，1002&lt;br&gt;This&amp;nbsp; &amp;nbsp; &amp;nbsp; &amp;nbsp; &amp;nbsp; &amp;nbsp; &amp;nbsp; &amp;nbsp; &amp;nbsp; &amp;nbsp; &amp;nbsp; &amp;nbsp; &amp;nbsp; &amp;nbsp;1002&lt;br&gt;&lt;/font&gt;" style="text;html=1;strokeColor=#000000;fillColor=none;align=center;verticalAlign=middle;whiteSpace=wrap;rounded=0;" vertex="1" parent="1">
          <mxGeometry x="400" y="110" width="320" height="160" as="geometry" />
        </mxCell>
      </root>
    </mxGraphModel>
  </diagram>
</mxfile>
